<svg width="20" height="15" viewBox="0 0 20 15" fill="none" xmlns="http://www.w3.org/2000/svg">
<path d="M17.5 1.16667C16.575 0.875 15.5584 0.75 14.5834 0.75C12.9584 0.75 11.2084 1.08333 10 2C8.79171 1.08333 7.04171 0.75 5.41671 0.75C3.79171 0.75 2.04171 1.08333 0.833374 2V14.2083C0.833374 14.4167 1.04171 14.625 1.25004 14.625C1.33337 14.625 1.37504 14.5833 1.45837 14.5833C2.58337 14.0417 4.20837 13.6667 5.41671 13.6667C7.04171 13.6667 8.79171 14 10 14.9167C11.125 14.2083 13.1667 13.6667 14.5834 13.6667C15.9584 13.6667 17.375 13.9167 18.5417 14.5417C18.625 14.5833 18.6667 14.5833 18.75 14.5833C18.9584 14.5833 19.1667 14.375 19.1667 14.1667V2C18.6667 1.625 18.125 1.375 17.5 1.16667ZM17.5 12.4167C16.5834 12.125 15.5834 12 14.5834 12C13.1667 12 11.125 12.5417 10 13.25V3.66667C11.125 2.95833 13.1667 2.41667 14.5834 2.41667C15.5834 2.41667 16.5834 2.54167 17.5 2.83333V12.4167Z" fill="#6E76E5"/>
</svg>
